<?xml version="1.0" encoding="utf-8"?>
<!-- Generator: Adobe Illustrator 19.1.0, SVG Export Plug-In . SVG Version: 6.00 Build 0)  -->
<svg version="1.1" id="Layer_1" xmlns="http://www.w3.org/2000/svg" xmlns:xlink="http://www.w3.org/1999/xlink" x="0px" y="0px"
	 viewBox="0 0 131 131" style="enable-background:new 0 0 131 131;" xml:space="preserve">
<style type="text/css">
	.st0{fill:none;stroke:#292738;stroke-width:2;stroke-linecap:round;stroke-linejoin:round;stroke-miterlimit:10;}
</style>
<g>
	<g>
		<g>
			<line class="st0" x1="72.6" y1="42.9" x2="84.4" y2="42.9"/>
			<line class="st0" x1="46.4" y1="42.9" x2="58.3" y2="42.9"/>
			<line class="st0" x1="65.4" y1="37" x2="65.4" y2="33.4"/>
			<line class="st0" x1="65.4" y1="97.6" x2="65.4" y2="48.9"/>
			<line class="st0" x1="54.8" y1="97.6" x2="76.1" y2="97.6"/>
			<line class="st0" x1="31" y1="77.4" x2="57.1" y2="77.4"/>
			<circle class="st0" cx="65.4" cy="42.9" r="5.9"/>
			<path class="st0" d="M57.1,77.4c0,7.2-5.9,13.1-13.1,13.1c-7.2,0-13.1-5.9-13.1-13.1"/>
			<circle class="st0" cx="44" cy="42.9" r="2.4"/>
			<circle class="st0" cx="86.8" cy="42.9" r="2.4"/>
			<polyline class="st0" points="31,77.4 44.1,45.3 57.1,77.4 			"/>
			<line class="st0" x1="73.8" y1="77.4" x2="99.9" y2="77.4"/>
			<path class="st0" d="M99.9,77.4c0,7.2-5.9,13.1-13.1,13.1c-7.2,0-13.1-5.9-13.1-13.1"/>
			<polyline class="st0" points="73.8,77.4 86.8,45.3 99.9,77.4 			"/>
			<path class="st0" d="M36.5,80.9c1.3,2.8,4.2,4.8,7.5,4.8"/>
			<path class="st0" d="M79.3,80.9c1.3,2.8,4.2,4.8,7.5,4.8"/>
		</g>
		<g>
			<circle class="st0" cx="65.4" cy="65.5" r="64.4"/>
			<circle class="st0" cx="65.4" cy="65.5" r="45.3"/>
			<line class="st0" x1="65.4" y1="10.6" x2="65.4" y2="10.6"/>
			<line class="st0" x1="65.4" y1="120.4" x2="65.4" y2="120.4"/>
			<line class="st0" x1="120.3" y1="65.5" x2="120.3" y2="65.5"/>
			<line class="st0" x1="10.5" y1="65.5" x2="10.5" y2="65.5"/>
			<line class="st0" x1="104.3" y1="26.7" x2="104.3" y2="26.7"/>
			<line class="st0" x1="26.6" y1="104.3" x2="26.6" y2="104.3"/>
			<line class="st0" x1="104.3" y1="104.3" x2="104.3" y2="104.3"/>
			<line class="st0" x1="26.6" y1="26.7" x2="26.6" y2="26.7"/>
		</g>
	</g>
</g>
</svg>
