<?xml version="1.0" encoding="utf-8"?>
<!-- Generator: Adobe Illustrator 19.1.0, SVG Export Plug-In . SVG Version: 6.00 Build 0)  -->
<svg version="1.1" id="Layer_1" xmlns="http://www.w3.org/2000/svg" xmlns:xlink="http://www.w3.org/1999/xlink" x="0px" y="0px"
	 viewBox="0 0 48.3 48.4" style="enable-background:new 0 0 48.3 48.4;" xml:space="preserve">
<style type="text/css">
	.st0{fill:none;stroke:#C3ADAC;stroke-miterlimit:10;}
</style>
<g>
	<circle class="st0" cx="11.5" cy="24.5" r="2.7"/>
	<circle class="st0" cx="20.4" cy="36.9" r="2.7"/>
	<circle class="st0" cx="29.2" cy="12.1" r="2.7"/>
	<circle class="st0" cx="38.1" cy="24.5" r="2.7"/>
	<circle class="st0" cx="45.1" cy="3.2" r="2.7"/>
	<line class="st0" x1="0" y1="46.6" x2="47.8" y2="46.6"/>
	<line class="st0" x1="0" y1="41.3" x2="1.8" y2="41.3"/>
	<line class="st0" x1="7.1" y1="48.4" x2="7.1" y2="46.6"/>
	<line class="st0" x1="12.4" y1="48.4" x2="12.4" y2="46.6"/>
	<line class="st0" x1="17.7" y1="48.4" x2="17.7" y2="46.6"/>
	<line class="st0" x1="23" y1="48.4" x2="23" y2="46.6"/>
	<line class="st0" x1="28.3" y1="48.4" x2="28.3" y2="46.6"/>
	<line class="st0" x1="33.6" y1="48.4" x2="33.6" y2="46.6"/>
	<line class="st0" x1="38.9" y1="48.4" x2="38.9" y2="46.6"/>
	<line class="st0" x1="44.3" y1="48.4" x2="44.3" y2="46.6"/>
	<line class="st0" x1="0" y1="36" x2="1.8" y2="36"/>
	<line class="st0" x1="0" y1="30.7" x2="1.8" y2="30.7"/>
	<line class="st0" x1="0" y1="25.3" x2="1.8" y2="25.3"/>
	<line class="st0" x1="0" y1="20" x2="1.8" y2="20"/>
	<line class="st0" x1="0" y1="14.7" x2="1.8" y2="14.7"/>
	<line class="st0" x1="0" y1="9.4" x2="1.8" y2="9.4"/>
	<line class="st0" x1="0" y1="4.1" x2="1.8" y2="4.1"/>
	<line class="st0" x1="1.8" y1="48.4" x2="1.8" y2="0.6"/>
	<line class="st0" x1="10.4" y1="26.9" x2="1.8" y2="46.6"/>
	<line class="st0" x1="18.8" y1="34.7" x2="13" y2="26.6"/>
	<line class="st0" x1="28.3" y1="14.6" x2="21.2" y2="34.4"/>
	<line class="st0" x1="36.5" y1="22.3" x2="30.7" y2="14.2"/>
	<line class="st0" x1="44.3" y1="5.7" x2="38.9" y2="22"/>
</g>
</svg>
