<?xml version="1.0" encoding="utf-8"?>
<!-- Generator: Adobe Illustrator 19.1.0, SVG Export Plug-In . SVG Version: 6.00 Build 0)  -->
<svg version="1.1" id="Layer_1" xmlns="http://www.w3.org/2000/svg" xmlns:xlink="http://www.w3.org/1999/xlink" x="0px" y="0px"
	 viewBox="0 0 48.9 31.2" style="enable-background:new 0 0 48.9 31.2;" xml:space="preserve">
<style type="text/css">
	.st0{fill:none;stroke:#C3ADAC;stroke-miterlimit:10;}
</style>
<g>
	<path class="st0" d="M1.5,30.7c-0.5,0-0.9-0.4-0.9-0.9c0-5.1,9-10.2,10-10.8c0.2-0.1,0.5-0.1,0.8,0c0,0,4.1,1.7,7.6,1.7
		c0,0,0,0,0,0c1.7,0,3-0.4,3.8-1.1c6-5.4,20.9-18.6,21-18.7c0.3-0.3,0.9-0.3,1.2,0c3.7,3.7,3.4,12.2,3.4,12.5c0,2-1.7,2.5-3.6,2.9
		c-2.1,0.5-5.4,1.3-9.6,4.3c-1.3,0.9-2.4,1.7-3.6,2.5c-6.4,4.6-10.6,7.6-13.7,7.6C1.9,30.7,1.5,30.7,1.5,30.7z"/>
	<path class="st0" d="M40.1,17.1C40.1,17.1,40.1,17.1,40.1,17.1 M48.2,14.4c0,0-2.2,3.9-2.2,9.1l0,6c0,0.2-0.1,0.5-0.3,0.6
		c-0.2,0.2-0.4,0.3-0.6,0.3l-3.3,0h0c-0.5,0-0.9-0.4-0.9-0.9c0-0.4-0.1-8.6-0.1-9.4c0-1.1-1-2.1-1.3-2.1"/>
</g>
</svg>
