<?xml version="1.0" encoding="utf-8"?>
<!-- Generator: Adobe Illustrator 19.1.0, SVG Export Plug-In . SVG Version: 6.00 Build 0)  -->
<svg version="1.1" id="Layer_1" xmlns="http://www.w3.org/2000/svg" xmlns:xlink="http://www.w3.org/1999/xlink" x="0px" y="0px"
	 viewBox="0 0 35.2 62.8" style="enable-background:new 0 0 35.2 62.8;" xml:space="preserve">
<style type="text/css">
	.st0{fill:#C2ADAC;}
</style>
<g>
	<path class="st0" d="M2.8,0l29,0c1.6,0,2.8,1.2,2.8,2.8v7.7c0,4.1-3.7,7.8-7.9,7.8H7.9c-4.5,0-7.9-3.7-7.9-7.8l0-7.7
		C0,1,1.3,0,2.8,0z M31.3,3.2L3.2,3.3v7.3c0,2.5,2.1,4.6,4.7,4.6h18.7c2.6,0,4.8-2.1,4.8-4.6V3.2z"/>
	<g>
		<path class="st0" d="M25.8,24.4c0-0.5,0.1-1,0.2-1.5H8c-4.3,0-8,3.6-8,7.9v32h3.2v-32c0-2.6,2.3-4.7,4.8-4.7h8.1v36.1h3.2V26.1H26
			C25.9,25.6,25.8,25,25.8,24.4z"/>
		<path class="st0" d="M32.4,31c-0.4,0-0.7,0-1.1-0.1l0.1,31.9h3.2V30.6C33.9,30.8,33.1,31,32.4,31z"/>
	</g>
	<circle class="st0" cx="32.5" cy="24.1" r="2.8"/>
</g>
</svg>
