<?xml version="1.0" encoding="utf-8"?>
<!-- Generator: Adobe Illustrator 19.1.0, SVG Export Plug-In . SVG Version: 6.00 Build 0)  -->
<svg version="1.1" id="Layer_1" xmlns="http://www.w3.org/2000/svg" xmlns:xlink="http://www.w3.org/1999/xlink" x="0px" y="0px"
	 viewBox="0 0 131 131" style="enable-background:new 0 0 131 131;" xml:space="preserve">
<style type="text/css">
	.st0{fill:none;stroke:#292738;stroke-width:2;stroke-linecap:round;stroke-linejoin:round;stroke-miterlimit:10;}
</style>
<g>
	<g>
		<g>
			<circle class="st0" cx="65.5" cy="65.5" r="64.4"/>
			<circle class="st0" cx="65.5" cy="65.5" r="45.3"/>
			<line class="st0" x1="65.5" y1="10.6" x2="65.5" y2="10.6"/>
			<line class="st0" x1="65.5" y1="120.4" x2="65.5" y2="120.4"/>
			<line class="st0" x1="120.4" y1="65.5" x2="120.4" y2="65.5"/>
			<line class="st0" x1="10.6" y1="65.5" x2="10.6" y2="65.5"/>
			<line class="st0" x1="104.3" y1="26.7" x2="104.3" y2="26.7"/>
			<line class="st0" x1="26.7" y1="104.3" x2="26.7" y2="104.3"/>
			<line class="st0" x1="104.3" y1="104.3" x2="104.3" y2="104.3"/>
			<line class="st0" x1="26.7" y1="26.7" x2="26.7" y2="26.7"/>
		</g>
		<g>
			<path class="st0" d="M97.1,69.2c-8.8,1.7-18-0.7-20.3-1.7c-2.4-1-5.7-1.9-4.8-5.1c1.4-4.9,3.4-14.1,11.4-21.3
				c0.8-0.8,0-6-1.1-7.4c-1.2-1.5-3.7,2.9-4.1,5.5c-7.4,6.3-10.9,12-17.1,24.3c-0.6,1.3-7.5-3.1-6.8-5.4c1.1-3.8,5-10,7.5-13.1
				c1.1-1.3,0.9-2.3,1.1-2.5c0.5-0.5,0.4,0,1.2-0.5c2.3-1.4,4-4.1,2.6-5.5c-0.8-0.8-3.2,0.4-4,1c-1,0.7-1.8,1.7-2.4,2.1
				C60,40,58.9,41,58.5,41.3c-5.7,4.8-11.3,13.5-13.3,19.1c-0.3,0.8,0,0,0.1-0.3c1.6-3.6-0.1-7.8-3.7-9.4c-3.6-1.6-7.8,0.1-9.4,3.7
				c-1.6,3.6,0.1,7.8,3.7,9.4c1.4,0.6,3-0.7,4.2,0.4l2.3,1.5c0,0-1.2,4.6-0.8,7c0.8,4.2,5.5,12.1,8.5,17c0.3,0.5,1.7,0.9,1.9,1.4
				c0.4,0.8,0.5,2,0.8,2.4c1.5,2.4,6.5,1.7,4.9-1.4c0,0-0.7-0.4-1.4-1.7c-0.2-0.5,0.5-0.6-0.4-2.1c-2.8-4.1-5.4-11-6.3-16.8
				c2.3,2.1,14,5.9,30.8,4.7c2.7-0.2,12.2-0.7,14.5-1.6c0.3,0.2-0.5-0.7-0.3-0.5c2.1,2.8,5.7,1.4,5.8,0.7
				C101,70.3,99,68.8,97.1,69.2z"/>
			<line class="st0" x1="31.6" y1="95" x2="100.7" y2="95"/>
		</g>
	</g>
</g>
</svg>
