<?xml version="1.0" encoding="utf-8"?>
<!-- Generator: Adobe Illustrator 19.1.0, SVG Export Plug-In . SVG Version: 6.00 Build 0)  -->
<svg version="1.1" id="Layer_1" xmlns="http://www.w3.org/2000/svg" xmlns:xlink="http://www.w3.org/1999/xlink" x="0px" y="0px"
	 viewBox="0 0 48.5 48.6" style="enable-background:new 0 0 48.5 48.6;" xml:space="preserve">
<style type="text/css">
	.st0{fill-rule:evenodd;clip-rule:evenodd;fill:none;stroke:#C3ADAC;stroke-miterlimit:10;}
	.st1{fill:none;stroke:#C3ADAC;stroke-miterlimit:10;}
</style>
<g>
	<circle class="st0" cx="4.8" cy="18.3" r="4.2"/>
	<circle class="st0" cx="30.2" cy="18.3" r="4.2"/>
	<line class="st1" x1="9" y1="18.3" x2="25.9" y2="18.3"/>
	<circle class="st0" cx="4.8" cy="43.7" r="4.2"/>
	<circle class="st0" cx="30.2" cy="43.7" r="4.2"/>
	<line class="st1" x1="9" y1="43.7" x2="25.9" y2="43.7"/>
	<line class="st1" x1="4.8" y1="22.6" x2="4.8" y2="39.5"/>
	<line class="st1" x1="30.2" y1="22.6" x2="30.2" y2="39.5"/>
	<circle class="st0" cx="18.3" cy="4.8" r="4.2"/>
	<circle class="st0" cx="43.7" cy="4.8" r="4.2"/>
	<line class="st1" x1="22.6" y1="4.8" x2="39.5" y2="4.8"/>
	<circle class="st0" cx="18.3" cy="30.2" r="4.2"/>
	<circle class="st0" cx="43.7" cy="30.2" r="4.2"/>
	<line class="st1" x1="22.6" y1="30.2" x2="39.5" y2="30.2"/>
	<line class="st1" x1="18.3" y1="9" x2="18.3" y2="26"/>
	<line class="st1" x1="43.7" y1="9" x2="43.7" y2="26"/>
	<line class="st1" x1="15.3" y1="7.8" x2="7.8" y2="15.3"/>
	<line class="st1" x1="40.7" y1="7.8" x2="33.2" y2="15.3"/>
	<line class="st1" x1="15.3" y1="33.2" x2="7.9" y2="40.6"/>
	<line class="st1" x1="41" y1="33.5" x2="33.6" y2="41"/>
</g>
</svg>
