<?xml version="1.0" encoding="utf-8"?>
<!-- Generator: Adobe Illustrator 19.1.0, SVG Export Plug-In . SVG Version: 6.00 Build 0)  -->
<svg version="1.1" id="Layer_1" xmlns="http://www.w3.org/2000/svg" xmlns:xlink="http://www.w3.org/1999/xlink" x="0px" y="0px"
	 viewBox="-458 255.5 42 50.5" style="enable-background:new -458 255.5 42 50.5;" xml:space="preserve">
<style type="text/css">
	.st0{fill:none;stroke:#C3ADAC;stroke-miterlimit:10;}
</style>
<g>
	<path class="st0" d="M-443.5,267H-454c-0.9,0-1.6,0.7-1.6,1.6v34c0,0.9,0.7,1.6,1.6,1.6h16.2c0.9,0,1.6-0.7,1.6-1.6v-21.9"/>
	<path class="st0" d="M-441,260.5v9.7c0,1.8,1.5,3.2,3.2,3.2h1.6v4.9l4.9-4.9h9.7c1.8,0,3.2-1.5,3.2-3.2v-9.7c0-1.8-1.5-3.2-3.2-3.2
		h-16.2C-439.6,257.3-441,258.7-441,260.5z"/>
	<line class="st0" x1="-436.2" y1="294.5" x2="-455.6" y2="294.5"/>
	<line class="st0" x1="-455.6" y1="273.5" x2="-443.5" y2="273.5"/>
	<line class="st0" x1="-447.5" y1="270.2" x2="-444.3" y2="270.2"/>
	<line class="st0" x1="-424.9" y1="265.4" x2="-424.9" y2="265.4"/>
	<line class="st0" x1="-429.7" y1="265.4" x2="-429.7" y2="265.4"/>
	<line class="st0" x1="-434.6" y1="265.4" x2="-434.6" y2="265.4"/>
	<circle class="st0" cx="-445.9" cy="299.4" r="1.6"/>
</g>
</svg>
