<?xml version="1.0" encoding="utf-8"?>
<!-- Generator: Adobe Illustrator 19.1.0, SVG Export Plug-In . SVG Version: 6.00 Build 0)  -->
<svg version="1.1" id="Layer_1" xmlns="http://www.w3.org/2000/svg" xmlns:xlink="http://www.w3.org/1999/xlink" x="0px" y="0px"
	 viewBox="0 0 131 131" style="enable-background:new 0 0 131 131;" xml:space="preserve">
<style type="text/css">
	.st0{fill:none;stroke:#292738;stroke-width:2;stroke-linecap:round;stroke-linejoin:round;stroke-miterlimit:10;}
</style>
<g>
	<g>
		<g>
			<circle class="st0" cx="65.7" cy="65.4" r="64.4"/>
			<circle class="st0" cx="65.7" cy="65.4" r="45.3"/>
			<line class="st0" x1="65.7" y1="10.5" x2="65.7" y2="10.5"/>
			<line class="st0" x1="65.7" y1="120.3" x2="65.7" y2="120.3"/>
			<line class="st0" x1="120.6" y1="65.4" x2="120.6" y2="65.4"/>
			<line class="st0" x1="10.8" y1="65.4" x2="10.8" y2="65.4"/>
			<line class="st0" x1="104.5" y1="26.6" x2="104.5" y2="26.6"/>
			<line class="st0" x1="26.8" y1="104.2" x2="26.8" y2="104.2"/>
			<line class="st0" x1="104.5" y1="104.2" x2="104.5" y2="104.2"/>
			<line class="st0" x1="26.8" y1="26.6" x2="26.8" y2="26.6"/>
		</g>
		<g>
			<circle class="st0" cx="65.7" cy="46.5" r="10"/>
			<path class="st0" d="M59.7,46.5c0-3.3,2.7-6,6-6"/>
			<line class="st0" x1="65.7" y1="88.4" x2="65.7" y2="56.4"/>
			<path class="st0" d="M62.7,82.5c-9.6,0.4-17,2.9-17,5.9c0,3.3,8.9,6,20,6s20-2.7,20-6c0-3-7.4-5.5-17-5.9"/>
		</g>
	</g>
</g>
</svg>
