<?xml version="1.0" encoding="utf-8"?>
<!-- Generator: Adobe Illustrator 19.1.0, SVG Export Plug-In . SVG Version: 6.00 Build 0)  -->
<svg version="1.1" id="Layer_1" xmlns="http://www.w3.org/2000/svg" xmlns:xlink="http://www.w3.org/1999/xlink" x="0px" y="0px"
	 viewBox="0 0 51 51" style="enable-background:new 0 0 51 51;" xml:space="preserve">
<style type="text/css">
	.st0{fill:none;stroke:#C3ADAC;stroke-miterlimit:10;}
</style>
<g>
	<g>
		<path class="st0" d="M41.5,44.7c-1.5-2.8-4.5-5.7-9-7.2c-3-1-2-4-2-6.9c4,3.9,5-1.1,9,0.9c-3.7-5.8-3.2-9-4-14
			c-0.6-3.5-2.9-9-10-9s-9.4,5.5-10,9c-0.8,5-0.3,8.2-4,14c4-2,5,3,9-0.9c0,2.9,1,5.9-2,6.9c-4.5,1.5-7.5,4.4-9,7.2"/>
		<circle class="st0" cx="25.5" cy="25.5" r="25"/>
	</g>
</g>
</svg>
