<?xml version="1.0" encoding="utf-8"?>
<!-- Generator: Adobe Illustrator 19.1.0, SVG Export Plug-In . SVG Version: 6.00 Build 0)  -->
<svg version="1.1" id="Layer_1" xmlns="http://www.w3.org/2000/svg" xmlns:xlink="http://www.w3.org/1999/xlink" x="0px" y="0px"
	 viewBox="-449 247.7 59.7 66.3" style="enable-background:new -449 247.7 59.7 66.3;" xml:space="preserve">
<style type="text/css">
	.st0{fill:none;stroke:#38384F;stroke-width:2;stroke-linecap:round;stroke-linejoin:round;stroke-miterlimit:10;}
</style>
<g>
	<path class="st0" d="M-410.3,257.1c-0.9-0.9-2.2-1.4-3.5-1.4c-2.9,0-5.2,2.3-5.2,5.2"/>
	<path class="st0" d="M-425.8,257.9c0.7-0.7,1.7-1.1,2.8-1.1c2.2,0,4,1.8,4,4"/>
	<path class="st0" d="M-442.2,282c1-11.8,10.9-21.1,22.9-21.1c11.3,0,20.7,8.2,22.6,18.9c0.1,0.7,0.2,1.3,0.3,2"/>
	<path class="st0" d="M-396.6,287.9c-2,10.8-11.4,19-22.7,19c-11.3,0-20.7-8.2-22.6-19"/>
	<path class="st0" d="M-428.3,291.1c1.4,3.6,4.9,6.1,9,6.1c4.1,0,7.6-2.5,9-6.1"/>
	<path class="st0" d="M-426.3,280.9c0-2.2-1.8-4-4-4c-2.2,0-4,1.8-4,4"/>
	<path class="st0" d="M-404.3,280.9c0-2.2-1.8-4-4-4c-2.2,0-4,1.8-4,4"/>
	<path class="st0" d="M-441.9,287.8c-0.1,0-0.2,0-0.3,0c-2.2,0-4-1.8-4-4c0-2.2,1.8-4,4-4c0.1,0,0.2,0,0.3,0"/>
	<path class="st0" d="M-396.6,287.8c0.1,0,0.2,0,0.3,0c2.2,0,4-1.8,4-4c0-2.2-1.8-4-4-4c-0.1,0-0.2,0-0.3,0"/>
</g>
</svg>
